<svg version="1.2" xmlns="http://www.w3.org/2000/svg" viewBox="0 0 553 794" width="553" height="794">
	<title>TRAVEL EXPLORER -svg</title>
	<defs>
		<clipPath clipPathUnits="userSpaceOnUse" id="cp1">
			<path d="m-570 0h1122.52v793.7h-1122.52z"/>
		</clipPath>
		<clipPath clipPathUnits="userSpaceOnUse" id="cp2">
			<path d="m-570 0h1122.52v793.7h-1122.52z"/>
		</clipPath>
		<clipPath clipPathUnits="userSpaceOnUse" id="cp3">
			<path d="m-570 0h1122.52v793.7h-1122.52z"/>
		</clipPath>
		<clipPath clipPathUnits="userSpaceOnUse" id="cp4">
			<path d="m-570 0h1122.52v793.7h-1122.52z"/>
		</clipPath>
		<clipPath clipPathUnits="userSpaceOnUse" id="cp5">
			<path d="m-570 0h1122.52v793.7h-1122.52z"/>
		</clipPath>
		<clipPath clipPathUnits="userSpaceOnUse" id="cp6">
			<path d="m-570 0h1122.52v793.7h-1122.52z"/>
		</clipPath>
		<clipPath clipPathUnits="userSpaceOnUse" id="cp7">
			<path d="m-570 0h1122.52v793.7h-1122.52z"/>
		</clipPath>
		<clipPath clipPathUnits="userSpaceOnUse" id="cp8">
			<path d="m-570 0h1122.52v793.7h-1122.52z"/>
		</clipPath>
	</defs>
	<style>
		.s0 { fill: #126667 } 
		.s1 { fill: #ffffff } 
	</style>
	<g id="layer-MC0">
		<path id="path1" class="s0" d="m-570 793.7h569.7v-793.7h-569.7z"/>
		<g id="Clip-Path: path2" clip-path="url(#cp1)">
			<path id="path2" class="s1" d="m-111.6 667.4h-341.8c-19.8 0-35.8-16-35.8-35.8v-341.8c0-19.8 16-35.8 35.8-35.8h341.8c19.8 0 35.8 16 35.8 35.8v341.8c0 19.8-16 35.8-35.8 35.8z"/>
		</g>
		<g id="Clip-Path: path4" clip-path="url(#cp2)">
			<path id="path4" class="s1" d="m-391.5 735.7c-18.8 0-34-15.2-34-34v-96.8c0-18.8 15.2-34 34-34 18.7 0 34 15.2 34 34v96.8c0 18.8-15.3 34-34 34z"/>
		</g>
		<g id="Clip-Path: path6" clip-path="url(#cp3)">
			<path id="path6" class="s1" d="m-173.5 735.7c-18.8 0-34-15.2-34-34v-96.8c0-18.8 15.2-34 34-34 18.8 0 34 15.2 34 34v96.8c0 18.8-15.2 34-34 34z"/>
		</g>
		<g id="Clip-Path: path8" clip-path="url(#cp4)">
			<path id="path8" class="s1" d="m-214 218.9c-8.7 0-15.7-7.1-15.7-15.7v-92c0-19.7-16-35.7-35.7-35.7h-40.4c-19.6 0-35.7 16-35.7 35.7v92c0 8.6-7 15.7-15.6 15.7-8.7 0-15.7-7.1-15.7-15.7v-92c0-37 30.1-67 67-67h40.4c37 0 67 30 67 67v92c0 8.6-7 15.7-15.6 15.7z"/>
		</g>
		<path id="path10" fill-rule="evenodd" class="s0" d="m-458.4 393.5h37q4.9 0 8 3 3 2.9 3 7.5 0 4.7-3 7.6-3.1 2.9-8 2.9h-7.2v46.3q0 5-3.1 8-3.1 3.1-8.5 3.1-5 0-8-3.1-3-3-3-8v-46.3h-7.2q-5 0-8-2.9-3-2.9-3-7.6 0-4.6 3-7.5 3-3 8-3zm80.5 49.7h-2.7v17.6q0 5-3.1 8-3.1 3.1-8.5 3.1-5 0-8-3.1-3-3-3-8v-56.2q0-5 3-8 3-3.1 8-3.1h17.1q13.7 0 20.9 6.8 7.2 6.8 7.2 18.1 0 5.1-1.3 8.6-1.2 3.5-2.8 5.6-1.8 2.5-4.2 4v1.1l7.8 13.2q0.9 1.7 1.6 3.3 0.7 1.6 1.2 3.3 0.5 1.7 0.5 3.3 0 5-3.1 8-3 3.1-8 3.1-2.7 0-4.7-1.1-1.9-1-3.2-2.2-1.5-1.5-2.5-3.4zm-2.8-17.6h3.3q2.9 0 4.8-1.9 1.8-2 1.8-5.3 0-3.3-1.8-5.2-1.9-1.9-4.8-1.9h-3.3zm78.9 28.6h-16.6l-1.6 6.7q-1.3 5.1-4.2 8.1-2.8 2.9-7.4 2.9-2.3 0-4.3-0.9-2-0.9-3.5-2.3-1.5-1.5-2.4-3.5-0.8-2-0.8-4.3 0-1.9 0.3-4 0.3-2.1 0.8-4 0.4-2.1 1.1-4.2l13.2-44.1q0.9-2.9 2.2-5.3 1.3-2.4 3.3-4.2 2-1.7 4.8-2.7 2.8-1 6.8-1 4 0 6.8 1 2.8 1 4.8 2.7 2 1.8 3.3 4.2 1.3 2.4 2.2 5.3l13.2 44.1q0.7 2.1 1.1 4.2 0.5 2 0.8 4 0.3 2.1 0.3 4 0 2.3-0.9 4.3-0.8 2-2.3 3.5-1.5 1.4-3.5 2.3-2 0.9-4.3 0.9-4.6 0-7.4-2.9-2.9-3-4.2-8.1zm-12.7-18.8h8.9l-4.1-17.6h-0.7zm64.6 9.9l7.7-41.9q0.9-5 3.8-8 2.9-3.1 8.3-3.1 5 0 8 3.1 3 3 3 8 0 1.2-0.4 3.4-0.4 2.2-0.9 4.4-0.6 2.5-1.4 5.4l-11 43q-1.6 6.3-5.7 9.8-4.1 3.5-12 3.5-7.9 0-12-3.5-4.1-3.5-5.6-9.8l-11.1-43q-0.7-2.9-1.3-5.4-0.7-2.3-1.1-4.5-0.3-2.1-0.3-3.3 0-5 3-8 3-3.1 8-3.1 5.4 0 8.3 3.1 3 3 3.8 8l7.8 41.9zm81.6-30.9h-21v8.3h14.4q4.6 0 7.3 2.6 2.6 2.6 2.6 6.8 0 4.1-2.6 6.7-2.7 2.6-7.3 2.6h-14.4v8.3h22.1q5 0 8 2.9 3 3 3 7.6 0 4.6-3 7.5-3 3-8 3h-33.6q-5 0-8-3.1-3.1-3-3.1-8v-55.1q0-5 3.1-8 3-3.1 8-3.1h32.5q5 0 8 3 3 2.9 3 7.5 0 4.7-3 7.6-3 2.9-8 2.9zm43-11v46.3h18.2q5 0 8 2.9 3 3 3 7.6 0 4.6-3 7.5-3 3-8 3h-29.8q-4.9 0-8-3.1-3-3-3-8v-56.2q0-5 3-8 3.1-3.1 8-3.1 5.4 0 8.5 3.1 3.1 3 3.1 8z"/>
		<path id="path11" fill-rule="evenodd" class="s0" d="m-427.1 490.8h-18.8v14.9h14.4q0.6 0 1 0.4 0.3 0.4 0.4 1-0.1 0.6-0.4 1-0.4 0.4-1 0.4h-14.4v15.5h19.1q0.6 0 1 0.4 0.4 0.4 0.4 1 0 0.6-0.4 1-0.4 0.4-1 0.4h-20.5q-0.6 0-1-0.4-0.4-0.4-0.4-1v-36q0-0.6 0.4-1 0.4-0.4 1-0.4h20.2q0.6 0 1 0.4 0.4 0.4 0.4 1 0 0.6-0.4 1-0.4 0.4-1 0.4zm16.7 18.2h-0.2l-10.4 16.7q-0.4 0.6-0.7 1-0.4 0.3-1 0.3-0.6 0-1-0.3-0.4-0.4-0.4-1 0-0.5 0.3-0.9 0.2-0.4 0.3-0.5l11.1-17.5-10-16.3q-0.1-0.2-0.3-0.6-0.3-0.4-0.3-0.8 0-0.6 0.4-1 0.4-0.4 1-0.4 0.6 0 0.9 0.4 0.4 0.3 0.8 1l9.3 15.5h0.2l9.3-15.5q0.5-0.7 0.8-1 0.3-0.4 0.9-0.4 0.6 0 1 0.4 0.4 0.4 0.4 1 0 0.4-0.2 0.8-0.3 0.4-0.4 0.6l-9.9 16.3 11 17.5q0.1 0.1 0.4 0.5 0.2 0.4 0.2 0.9 0 0.6-0.4 1-0.4 0.3-1 0.3-0.6 0-0.9-0.3-0.4-0.4-0.8-1zm21.5-21.1h10q2.8 0 5.1 0.9 2.3 0.9 3.9 2.5 1.7 1.7 2.6 4 0.8 2.3 0.8 5.1 0 2.8-0.8 5.1-0.9 2.3-2.6 3.9-1.6 1.7-3.9 2.6-2.3 0.8-5.1 0.8h-8.6v12.8q0 0.6-0.4 1-0.4 0.4-1 0.4-0.6 0-1-0.4-0.4-0.4-0.4-1v-36.3q0-0.6 0.4-1 0.4-0.4 1-0.4zm10 2.8h-8.6v19.4h8.6q2.1 0 3.9-0.7 1.8-0.7 3.1-2 1.3-1.3 2-3.1 0.7-1.8 0.7-3.9 0-2.2-0.7-4-0.7-1.8-2-3.1-1.3-1.2-3.1-1.9-1.8-0.7-3.9-0.7zm24.1-1.7v34.9h17.7q0.6 0 1 0.4 0.4 0.4 0.4 1 0 0.6-0.4 1-0.4 0.4-1 0.4h-19.1q-0.6 0-1-0.4-0.4-0.4-0.4-1v-36.3q0-0.6 0.4-1 0.4-0.4 1-0.4 0.6 0 1 0.4 0.4 0.4 0.4 1zm36 38.8q-2.9 0-5.4-1-2.4-1.1-4.2-3-1.7-2-2.7-4.9-1-2.9-1-6.6v-10q0-3.7 1-6.6 1-2.9 2.7-4.9 1.8-2 4.2-3 2.5-1 5.4-1 2.9 0 5.3 1 2.5 1 4.2 3 1.7 2 2.8 4.9 0.9 2.9 1 6.6v10q-0.1 3.7-1 6.6-1.1 2.9-2.8 4.9-1.7 1.9-4.2 3-2.4 1-5.3 1zm0-2.8q2.2 0 4.2-0.8 1.9-0.9 3.3-2.4 1.4-1.7 2.2-4 0.8-2.4 0.8-5.5v-10q0-3.1-0.8-5.5-0.8-2.4-2.2-4-1.4-1.6-3.3-2.4-2-0.8-4.2-0.8-2.3 0-4.2 0.8-2 0.8-3.4 2.4-1.4 1.6-2.2 4-0.8 2.4-0.8 5.5v10q0 3.1 0.8 5.5 0.8 2.3 2.2 4 1.4 1.5 3.4 2.4 1.9 0.8 4.2 0.8zm36.8-14.9h-10.5v15.5q0 0.6-0.4 1-0.4 0.4-1 0.4-0.6 0-1-0.4-0.4-0.4-0.4-1v-36.3q0-0.6 0.4-1 0.4-0.4 1-0.4h11.3q2.5 0 4.6 0.8 2 0.8 3.5 2.3 1.4 1.4 2.2 3.5 0.8 2 0.8 4.5 0 3.4-1.2 5.5-1.1 2.1-2.5 3.2-1.7 1.3-3.8 1.8v0.3l8.9 14.4q0.3 0.5 0.4 0.8 0.1 0.3 0.1 0.6 0 0.6-0.3 1-0.4 0.4-1 0.4-0.7 0-1-0.4-0.3-0.4-0.7-1zm-0.5-19.4h-10v16.6h10q3.7 0 6-2.3 2.3-2.2 2.3-6 0-3.8-2.3-6-2.3-2.3-6-2.3zm42.3 0h-18.8v14.9h14.4q0.6 0 1 0.4 0.4 0.4 0.4 1 0 0.6-0.4 1-0.4 0.4-1 0.4h-14.4v15.5h19.1q0.6 0 1 0.4 0.4 0.4 0.4 1 0 0.6-0.4 1-0.4 0.4-1 0.4h-20.5q-0.6 0-1-0.4-0.4-0.4-0.4-1v-36q0-0.6 0.4-1 0.4-0.4 1-0.4h20.2q0.6 0 1 0.4 0.4 0.4 0.4 1 0 0.6-0.4 1-0.4 0.4-1 0.4zm21.9 19.4h-10.5v15.5q0 0.6-0.4 1-0.4 0.4-1 0.4-0.6 0-1-0.4-0.4-0.4-0.4-1v-36.3q0-0.6 0.4-1 0.4-0.4 1-0.4h11.3q2.5 0 4.6 0.8 2 0.8 3.5 2.3 1.4 1.4 2.2 3.5 0.8 2 0.8 4.5 0 3.4-1.2 5.5-1.1 2.1-2.5 3.2-1.7 1.3-3.8 1.8v0.3l8.9 14.4q0.3 0.5 0.4 0.9 0.1 0.2 0.1 0.5 0 0.6-0.3 1-0.4 0.4-1 0.4-0.7 0-1-0.4-0.3-0.4-0.7-1zm-0.5-19.4h-10v16.6h10q3.7 0 6-2.3 2.3-2.2 2.3-6 0-3.8-2.3-6-2.3-2.3-6-2.3z"/>
		<g id="Clip-Path: path12" clip-path="url(#cp5)">
			<path id="path12" class="s0" d="m447 667.4h-341.8c-19.7 0-35.8-16-35.8-35.8v-341.8c0-19.8 16.1-35.8 35.8-35.8h341.8c19.8 0 35.8 16 35.8 35.8v341.8c0 19.8-16 35.8-35.8 35.8z"/>
		</g>
		<g id="Clip-Path: path14" clip-path="url(#cp6)">
			<path id="path14" class="s0" d="m167.1 735.7c-18.8 0-34-15.2-34-34v-96.8c0-18.8 15.2-34 34-34 18.8 0 34 15.2 34 34v96.8c0 18.8-15.2 34-34 34z"/>
		</g>
		<g id="Clip-Path: path16" clip-path="url(#cp7)">
			<path id="path16" class="s0" d="m385.1 735.7c-18.7 0-33.9-15.2-33.9-34v-96.8c0-18.8 15.2-34 33.9-34 18.8 0 34 15.2 34 34v96.8c0 18.8-15.2 34-34 34z"/>
		</g>
		<g id="Clip-Path: path18" clip-path="url(#cp8)">
			<path id="path18" class="s0" d="m344.6 218.9c-8.6 0-15.7-7.1-15.7-15.7v-92c0-19.7-16-35.7-35.7-35.7h-40.3c-19.7 0-35.7 16-35.7 35.7v92c0 8.6-7 15.7-15.7 15.7-8.6 0-15.7-7.1-15.7-15.7v-92c0-37 30.1-67 67.1-67h40.3c37 0 67.1 30 67.1 67v92c0 8.6-7 15.7-15.7 15.7z"/>
		</g>
		<path id="path20" fill-rule="evenodd" class="s1" d="m100.2 393.5h37q5 0 8 3 3 2.9 3 7.5 0 4.7-3 7.6-3 2.9-8 2.9h-7.2v46.3q0 5-3.1 8-3 3.1-8.5 3.1-4.9 0-8-3.1-3-3-3-8v-46.3h-7.2q-4.9 0-8-2.9-3-2.9-3-7.6 0-4.6 3-7.5 3.1-3 8-3zm80.6 49.7h-2.8v17.6q0 5-3.1 8-3.1 3.1-8.5 3.1-4.9 0-8-3.1-3-3-3-8v-56.2q0-5 3-8 3.1-3.1 8-3.1h17.1q13.7 0 20.9 6.8 7.3 6.8 7.3 18.1 0 5.1-1.3 8.6-1.3 3.5-2.8 5.6-1.9 2.5-4.2 4v1.1l7.7 13.2q0.9 1.7 1.7 3.3 0.6 1.6 1.1 3.3 0.5 1.7 0.5 3.3 0 5-3 8-3 3.1-8 3.1-2.8 0-4.7-1.1-1.9-1-3.3-2.2-1.5-1.5-2.5-3.4zm-2.8-17.6h3.3q2.9 0 4.8-1.9 1.9-2 1.9-5.3 0-3.3-1.9-5.2-1.9-1.9-4.8-1.9h-3.3zm78.9 28.6h-16.5l-1.7 6.7q-1.3 5.1-4.1 8.1-2.8 2.9-7.5 2.9-2.3 0-4.3-0.9-2-0.9-3.5-2.3-1.4-1.5-2.3-3.5-0.9-2-0.9-4.3 0-1.9 0.3-4 0.3-2.1 0.8-4 0.4-2.1 1.1-4.2l13.2-44.1q0.9-2.9 2.2-5.3 1.4-2.4 3.3-4.2 2-1.7 4.8-2.7 2.9-1 6.8-1 4 0 6.8 1 2.8 1 4.8 2.7 2 1.8 3.3 4.2 1.4 2.4 2.2 5.3l13.3 44.1q0.6 2.1 1.1 4.2 0.4 2 0.7 4 0.4 2.1 0.4 4 0 2.3-0.9 4.3-0.9 2-2.4 3.5-1.5 1.4-3.4 2.3-2 0.9-4.4 0.9-4.6 0-7.4-2.9-2.8-3-4.1-8.1zm-12.7-18.8h8.8l-4.1-17.6h-0.6zm64.5 9.9l7.7-41.9q0.9-5 3.8-8 2.9-3.1 8.4-3.1 4.9 0 8 3.1 3 3 3 8 0 1.2-0.4 3.4-0.5 2.2-0.9 4.4-0.7 2.5-1.5 5.4l-11 43q-1.5 6.3-5.6 9.8-4.1 3.5-12 3.5-8 0-12.1-3.5-4.1-3.5-5.6-9.8l-11-43q-0.8-2.9-1.3-5.4-0.7-2.3-1.1-4.5-0.4-2.1-0.4-3.3 0-5 3-8 3.1-3.1 8-3.1 5.4 0 8.4 3.1 2.9 3 3.8 8l7.7 41.9zm81.6-30.9h-20.9v8.3h14.3q4.7 0 7.3 2.6 2.6 2.6 2.6 6.8 0 4.1-2.6 6.7-2.6 2.6-7.3 2.6h-14.3v8.3h22q5 0 8 2.9 3.1 3 3.1 7.6 0 4.6-3.1 7.5-3 3-8 3h-33.6q-5 0-8-3.1-3-3-3-8v-55.1q0-5 3-8 3-3.1 8-3.1h32.5q5 0 8 3 3.1 2.9 3.1 7.5 0 4.7-3.1 7.6-3 2.9-8 2.9zm43.1-11v46.3h18.2q4.9 0 8 2.9 3 3 3 7.6 0 4.6-3 7.5-3.1 3-8 3h-29.8q-5 0-8-3.1-3.1-3-3.1-8v-56.2q0-5 3.1-8 3-3.1 8-3.1 5.4 0 8.5 3.1 3.1 3 3.1 8z"/>
		<path id="path21" fill-rule="evenodd" class="s1" d="m131.5 490.8h-18.8v14.9h14.4q0.6 0 1 0.4 0.4 0.4 0.4 1 0 0.6-0.4 1-0.4 0.4-1 0.4h-14.4v15.5h19.1q0.6 0 1 0.4 0.4 0.4 0.4 1 0 0.6-0.4 1-0.4 0.4-1 0.4h-20.5q-0.6 0-1-0.4-0.4-0.4-0.4-1v-36q0-0.6 0.4-1 0.4-0.4 1-0.4h20.2q0.6 0 1 0.4 0.4 0.4 0.4 1 0 0.6-0.4 1-0.4 0.4-1 0.4zm16.8 18.2h-0.3l-10.4 16.7q-0.4 0.6-0.7 1-0.3 0.3-0.9 0.3-0.6 0-1-0.3-0.4-0.4-0.4-1 0-0.5 0.2-0.9 0.2-0.4 0.3-0.5l11.1-17.5-10-16.3q-0.1-0.2-0.3-0.6-0.2-0.4-0.2-0.8 0-0.6 0.4-1 0.4-0.4 1-0.4 0.6 0 0.9 0.4 0.3 0.3 0.7 1l9.3 15.5h0.3l9.3-15.5q0.4-0.7 0.7-1 0.3-0.4 0.9-0.4 0.6 0 1 0.4 0.4 0.4 0.4 1 0 0.4-0.2 0.8-0.2 0.4-0.3 0.6l-10 16.3 11.1 17.5q0.1 0.1 0.3 0.5 0.2 0.4 0.2 0.9 0 0.6-0.4 1-0.4 0.3-1 0.3-0.6 0-0.9-0.3-0.3-0.4-0.7-1zm21.4-21.1h10q2.8 0 5.1 0.9 2.3 0.9 4 2.5 1.6 1.7 2.5 4 0.9 2.3 0.9 5.1 0 2.8-0.9 5.1-0.9 2.3-2.5 3.9-1.7 1.7-4 2.6-2.3 0.8-5.1 0.8h-8.6v12.8q0 0.6-0.4 1-0.3 0.4-1 0.4-0.6 0-1-0.4-0.3-0.4-0.3-1v-36.3q0-0.6 0.3-1 0.4-0.4 1-0.4zm10 2.8h-8.6v19.4h8.6q2.2 0 4-0.7 1.8-0.7 3-2 1.3-1.3 2-3.1 0.7-1.8 0.7-3.9 0-2.2-0.7-4-0.7-1.8-2-3.1-1.2-1.2-3-1.9-1.8-0.7-4-0.7zm24.1-1.7v34.9h17.7q0.6 0 1 0.4 0.4 0.4 0.4 1 0 0.6-0.4 1-0.4 0.4-1 0.4h-19.1q-0.6 0-1-0.4-0.4-0.4-0.4-1v-36.3q0-0.6 0.4-1 0.4-0.4 1-0.4 0.6 0 1 0.4 0.4 0.4 0.4 1zm36 38.8q-2.9 0-5.3-1-2.5-1.1-4.3-3-1.7-2-2.7-4.9-1-2.9-1-6.6v-10q0-3.7 1-6.6 1-2.9 2.7-4.9 1.8-2 4.3-3 2.4-1 5.3-1 2.9 0 5.4 1 2.4 1 4.1 3 1.8 2 2.8 4.9 1 2.9 1 6.6v10q0 3.7-1 6.6-1 2.9-2.8 4.9-1.7 1.9-4.1 3-2.5 1-5.4 1zm0-2.8q2.3 0 4.2-0.8 1.9-0.9 3.4-2.4 1.4-1.7 2.1-4 0.8-2.4 0.8-5.5v-10q0-3.1-0.8-5.5-0.7-2.4-2.1-4-1.5-1.6-3.4-2.4-1.9-0.8-4.2-0.8-2.3 0-4.2 0.8-1.9 0.8-3.4 2.4-1.4 1.6-2.2 4-0.7 2.4-0.7 5.5v10q0 3.1 0.7 5.5 0.8 2.3 2.2 4 1.5 1.5 3.4 2.4 1.9 0.8 4.2 0.8zm36.8-14.9h-10.5v15.5q0 0.6-0.4 1-0.4 0.4-1 0.4-0.6 0-1-0.4-0.4-0.4-0.4-1v-36.3q0-0.6 0.4-1 0.4-0.4 1-0.4h11.4q2.5 0 4.5 0.8 2.1 0.8 3.5 2.3 1.4 1.4 2.2 3.5 0.8 2 0.9 4.5 0 3.4-1.2 5.5-1.2 2.1-2.6 3.2-1.6 1.3-3.7 1.8v0.3l8.8 14.4q0.4 0.5 0.5 0.8 0.1 0.3 0.1 0.6 0 0.6-0.4 1-0.4 0.4-1 0.4-0.6 0-0.9-0.4-0.4-0.4-0.8-1zm-0.5-19.4h-10v16.6h10q3.8 0 6-2.3 2.3-2.2 2.3-6 0-3.8-2.3-6-2.2-2.3-6-2.3zm42.4 0h-18.9v14.9h14.4q0.6 0 1 0.4 0.4 0.4 0.4 1 0 0.6-0.4 1-0.4 0.4-1 0.4h-14.4v15.5h19.1q0.6 0 1 0.4 0.4 0.4 0.4 1 0 0.6-0.4 1-0.4 0.4-1 0.4h-20.5q-0.6 0-1-0.4-0.3-0.4-0.3-1v-36q0-0.6 0.3-1 0.4-0.4 1-0.4h20.3q0.6 0 1 0.4 0.3 0.4 0.3 1 0 0.6-0.3 1-0.4 0.4-1 0.4zm21.8 19.4h-10.5v15.5q0 0.6-0.4 1-0.4 0.4-1 0.4-0.6 0-1-0.4-0.4-0.4-0.4-1v-36.3q0-0.6 0.4-1 0.4-0.4 1-0.4h11.4q2.5 0 4.5 0.8 2.1 0.8 3.5 2.3 1.4 1.4 2.2 3.5 0.9 2 0.9 4.5 0 3.4-1.2 5.5-1.2 2.1-2.6 3.2-1.6 1.3-3.7 1.8v0.3l8.8 14.4q0.4 0.5 0.5 0.9 0.1 0.2 0.1 0.5 0 0.6-0.4 1-0.4 0.4-1 0.4-0.6 0-0.9-0.4-0.4-0.4-0.8-1zm-0.5-19.4h-10v16.6h10q3.8 0 6-2.3 2.3-2.2 2.3-6 0-3.8-2.3-6-2.2-2.3-6-2.3z"/>
	</g>
</svg>