<svg viewBox="0 0 356 124" fill="none"
    xmlns="http://www.w3.org/2000/svg">
    <circle cx="39.6392" cy="62" r="39.6391" transform="rotate(90 39.6392 62)" fill="black"/>
    <circle cx="39.6392" cy="62" r="39.0475" transform="rotate(90 39.6392 62)" stroke="white" stroke-opacity="0.2" stroke-width="1.18326"/>
    <path d="M31.3497 53.4486C32.2833 53.4486 33.0614 53.7857 33.6838 54.46C34.3192 55.1344 34.637 56.0032 34.637 57.0665C34.637 58.1428 34.3192 59.0117 33.6838 59.673C33.0614 60.3473 32.2833 60.6845 31.3497 60.6845C30.416 60.6845 29.6315 60.3473 28.9961 59.673C28.3736 59.0117 28.0624 58.1428 28.0624 57.0665C28.0624 56.0032 28.3736 55.1344 28.9961 54.46C29.6315 53.7857 30.416 53.4486 31.3497 53.4486ZM46.8718 53.4486C47.8055 53.4486 48.5836 53.7857 49.206 54.46C49.8414 55.1344 50.1591 56.0032 50.1591 57.0665C50.1591 58.1428 49.8414 59.0117 49.206 59.673C48.5836 60.3473 47.8055 60.6845 46.8718 60.6845C45.9382 60.6845 45.1536 60.3473 44.5182 59.673C43.8958 59.0117 43.5846 58.1428 43.5846 57.0665C43.5846 56.0032 43.8958 55.1344 44.5182 54.46C45.1536 53.7857 45.9382 53.4486 46.8718 53.4486ZM39.7916 75.3119L39.2469 75.3119C36.6923 75.3119 34.3192 75.0201 32.1277 74.4366C29.9362 73.866 27.9846 73.0944 26.2729 72.1219C24.5612 71.1493 23.1347 70.06 21.9936 68.854C20.8395 67.661 20.016 66.4356 19.5233 65.1777L22.7522 63.9134C23.2839 64.6396 24.01 65.3398 24.9307 66.0141C25.8385 66.7014 26.9602 67.3174 28.2958 67.862C29.6315 68.4067 31.2006 68.8346 33.003 69.1458C34.8055 69.47 36.8739 69.6321 39.208 69.6321L39.8305 69.6321C42.1646 69.6321 44.2329 69.47 46.0354 69.1458C47.8379 68.8346 49.407 68.4067 50.7427 67.862C52.0783 67.3174 53.2 66.7014 54.1077 66.0141C55.0284 65.3398 55.7546 64.6396 56.2863 63.9134L59.5152 65.1777C59.0354 66.4356 58.2185 67.661 57.0643 68.854C55.9102 70.06 54.4773 71.1493 52.7656 72.1219C51.0539 73.0944 49.1023 73.866 46.9107 74.4366C44.7192 75.0201 42.3462 75.3119 39.7916 75.3119Z" fill="white"/>
    <path d="M168.946 99H112.208V84.8398L142.921 42.6035H114.161V25.7578H168.458V40.4062L138.087 82.1543H168.946V99ZM196.095 25.7578H176.759V99H196.095V25.7578ZM274.317 99H251.563L225.196 55.543V99H205.86V25.7578H228.614L254.981 69.3613V25.7578H274.317V99ZM303.419 99H284.083V25.7578H303.419V56.373C305.144 53.834 306.788 51.4902 308.351 49.3418C309.913 47.1934 311.231 45.4518 312.306 44.1172L326.905 25.7578H349.659L322.657 59.6934L354.542 99H329.591L310.304 75.2207L303.419 83.9121V99Z" fill="black"/>
</svg>
